# xmcd
#
# Track frame offsets: 
#        150
#        12974
#        25161
#        37699
#        55470
#        76613
#        88149
#        100504
#        113520
#        124448
#        143823
#        158222
#        169295
#        188171
#
# Disc length: 2648 seconds
#
# Revision: 0
# Processed by: cddbd v1.5.2PL0 Copyright (c) Steve Scherf et al.
# Submitted via: ExactAudioCopy v0.95b4
#
DISCID=a70a560e
DTITLE=Mojo Hoop - Hoop's been talkin'
DYEAR=2006
DGENRE=Blues
TTITLE0=Free and easy
TTITLE1=Don't act like an angel
TTITLE2=Full of life
TTITLE3=Hey hey woman
TTITLE4=Gloomy room
TTITLE5=Nothing but a bitch
TTITLE6=I wanna know
TTITLE7=Why are people like that?
TTITLE8=I quit
TTITLE9=Here I am again
TTITLE10=Don't get me wrong
TTITLE11=Bad Bourbon
TTITLE12=Hanging on the edge of love
TTITLE13=Swingin' through the park
EXTD=
EXTT0=
EXTT1=
EXTT2=
EXTT3=
EXTT4=
EXTT5=
EXTT6=
EXTT7=
EXTT8=
EXTT9=
EXTT10=
EXTT11=
EXTT12=
EXTT13=
PLAYORDER=
